<?xml version="1.0" standalone="no"?>
<!DOCTYPE svg PUBLIC "-//W3C//DTD SVG 20010904//EN"
 "http://www.w3.org/TR/2001/REC-SVG-20010904/DTD/svg10.dtd">
<svg version="1.0" xmlns="http://www.w3.org/2000/svg"
 width="200.000000pt" height="200.000000pt" viewBox="0 0 200.000000 200.000000"
 preserveAspectRatio="xMidYMid meet">

<g transform="translate(0.000000,200.000000) scale(0.100000,-0.100000)"
fill="#F5A524" stroke="none">
<path d="M0 1000 l0 -1000 1000 0 1000 0 0 1000 0 1000 -1000 0 -1000 0 0
-1000z m999 613 c0 -25 -1 -25 -8 -8 -5 11 -7 23 -4 28 8 14 13 7 12 -20z
m-39 4 c0 -8 -24 -17 -64 -24 -221 -38 -398 -250 -395 -473 1 -174 110 -350
262 -425 283 -138 612 15 692 322 65 251 -114 526 -373 576 -37 7 -62 17 -62
24 0 17 23 16 95 -2 90 -24 167 -70 240 -145 133 -138 176 -323 117 -501 -79
-241 -324 -391 -570 -349 -354 59 -539 456 -357 765 36 62 126 147 193 183 94
50 222 78 222 49z m40 -62 c0 -8 -4 -15 -10 -15 -5 0 -10 7 -10 15 0 8 5 15
10 15 6 0 10 -7 10 -15z m13 -87 c3 -33 2 -58 -4 -58 -5 0 -9 28 -9 62 0 75 5
73 13 -4z m-36 20 c-3 -7 -5 -2 -5 12 0 14 2 19 5 13 2 -7 2 -19 0 -25z m3
-49 c0 -16 -4 -28 -9 -25 -8 5 -3 56 5 56 2 0 4 -14 4 -31z m-20 -49 c0 -5 -5
-10 -11 -10 -5 0 -7 5 -4 10 3 6 8 10 11 10 2 0 4 -4 4 -10z m75 0 c3 -5 -1
-10 -10 -10 -9 0 -13 5 -10 10 3 6 8 10 10 10 2 0 7 -4 10 -10z m38 -42 c7
-24 -10 -51 -24 -42 -5 3 -9 0 -9 -5 0 -6 8 -11 18 -11 9 0 24 -5 32 -10 11
-7 7 -8 -15 -6 -30 3 -30 3 -36 -58 l-6 -61 -1 82 c-2 99 -21 123 -24 31 l-2
-63 -3 63 c-3 54 -6 62 -18 52 -12 -10 -15 -10 -15 -1 0 7 -4 10 -8 7 -4 -2
-9 -40 -11 -83 -3 -91 -11 -112 -11 -30 0 38 -4 57 -12 57 -9 0 -9 3 0 12 18
18 15 27 -8 23 -21 -4 -24 5 -14 43 6 20 12 22 84 22 72 0 78 -2 83 -22z m-96
-80 c-3 -7 -5 -2 -5 12 0 14 2 19 5 13 2 -7 2 -19 0 -25z m-67 -105 c0 -3 -7
-3 -15 1 -12 4 -15 -3 -16 -32 -2 -31 -3 -33 -6 -9 -6 38 3 58 22 51 8 -3 15
-8 15 -11z m147 -35 c-2 -13 -4 -5 -4 17 -1 22 1 32 4 23 2 -10 2 -28 0 -40z
m53 41 c0 -5 -4 -7 -10 -4 -6 4 -11 -14 -12 -47 -1 -52 -2 -52 -5 -9 -3 24 -2
50 1 57 6 16 26 19 26 3z m-550 -716 c0 -5 -15 -8 -34 -8 -19 0 -32 3 -29 8 2
4 17 7 34 7 16 0 29 -3 29 -7z m144 -2 c4 -5 -7 -7 -25 -4 -31 5 -63 -12 -53
-28 3 -5 0 -9 -5 -9 -16 0 -14 11 6 32 17 19 68 25 77 9z m110 2 c-37 -4 -41
-7 -36 -25 3 -14 1 -19 -6 -14 -7 4 -12 16 -12 27 0 16 7 19 48 17 l47 -1 -41
-4z m117 -20 c20 -23 20 -25 2 -10 -21 19 -22 18 -26 -10 -3 -24 -4 -22 -6 10
0 20 0 37 2 37 2 0 14 -12 28 -27z m66 -20 c-3 -10 -5 -2 -5 17 0 19 2 27 5
18 2 -10 2 -26 0 -35z m123 37 c0 -6 -10 -8 -24 -4 -20 5 -25 1 -29 -18 -4
-21 -4 -20 -6 5 -1 24 3 27 29 27 17 0 30 -5 30 -10z m242 -20 c-2 -16 -6 -30
-8 -30 -2 0 -4 14 -4 30 0 17 4 30 8 30 5 0 7 -13 4 -30z m143 20 c-3 -5 -11
-10 -16 -10 -6 0 -7 5 -4 10 3 6 11 10 16 10 6 0 7 -4 4 -10z m-345 -31 c0 -5
-5 -9 -12 -9 -6 0 -8 3 -5 7 4 3 1 13 -6 22 -11 14 -10 14 6 2 9 -7 17 -17 17
-22z m-337 -16 c-7 -2 -19 -2 -25 0 -7 3 -2 5 12 5 14 0 19 -2 13 -5z m1083
-308 c-8 -9 -15 -9 -28 -1 -16 9 -16 12 -1 28 15 17 17 17 28 1 9 -12 9 -20 1
-28z"/>
<path d="M1880 110 c0 -5 5 -10 10 -10 6 0 10 5 10 10 0 6 -4 10 -10 10 -5 0
-10 -4 -10 -10z"/>
</g>
</svg>
